---
date: 2021-05-29 04:21:39 +0
title: Ello 2021-05-29T04:21:39.618Z
---
FFmpeg でMP4 を WebM に変換するコマンド：

```
$ ffmpeg -i 浮世カットシーン「シン」-4.mp4 -b:v 5M -vcodec libvpx 浮世カッ トシーン「シン」-4.webm
ffmpeg version 4.2.4-1ubuntu0.1 Copyright (c) 2000-2020 the FFmpeg developers
  built with gcc 9 (Ubuntu 9.3.0-10ubuntu2)
  configuration: --prefix=/usr --extra-version=1ubuntu0.1 --toolchain=hardened --libdir=/usr/lib/x86_64-linux-gnu --incdir=/usr/include/x86_64-linux-gnu --arch=amd64 --enable-gpl --disable-stripping --enable-avresample --disable-filter=resample --enable-avisynth --enable-gnutls --enable-ladspa --enable-libaom --enable-libass --enable-libbluray --enable-libbs2b --enable-libcaca --enable-libcdio --enable-libcodec2 --enable-libflite --enable-libfontconfig --enable-libfreetype --enable-libfribidi --enable-libgme --enable-libgsm --enable-libjack --enable-libmp3lame --enable-libmysofa --enable-libopenjpeg --enable-libopenmpt --enable-libopus --enable-libpulse --enable-librsvg --enable-librubberband --enable-libshine --enable-libsnappy --enable-libsoxr --enable-libspeex --enable-libssh --enable-libtheora --enable-libtwolame --enable-libvidstab --enable-libvorbis --enable-libvpx --enable-libwavpack --enable-libwebp --enable-libx265 --enable-libxml2 --enable-libxvid --enable-libzmq --enable-libzvbi --enable-lv2 --enable-omx --enable-openal --enable-opencl --enable-opengl --enable-sdl2 --enable-libdc1394 --enable-libdrm --enable-libiec61883 --enable-nvenc --enable-chromaprint --enable-frei0r --enable-libx264 --enable-shared
  libavutil      56. 31.100 / 56. 31.100
  libavcodec     58. 54.100 / 58. 54.100
  libavformat    58. 29.100 / 58. 29.100
  libavdevice    58.  8.100 / 58.  8.100
  libavfilter     7. 57.100 /  7. 57.100
  libavresample   4.  0.  0 /  4.  0.  0
  libswscale      5.  5.100 /  5.  5.100
  libswresample   3.  5.100 /  3.  5.100
  libpostproc    55.  5.100 / 55.  5.100
Input #0, mov,mp4,m4a,3gp,3g2,mj2, from &apos;浮世カットシーン「シン」-4.mp4&apos;:
  Metadata:
    major_brand     : isom
    minor_version   : 512
    compatible_brands: isomiso2avc1mp41
    encoder         : Lavf58.29.100
  Duration: 00:00:20.69, start: 0.000000, bitrate: 5216 kb/s
    Stream #0:0(und): Video: h264 (Constrained Baseline) (avc1 / 0x31637661), yuv420p(tv, bt709), 1920x1080 [SAR 1:1 DAR 16:9], 5213 kb/s, 30 fps, 30 tbr, 15360 tbn, 60 tbc (default)
    Metadata:
      handler_name    : VideoHandler
    Stream #0:1(und): Audio: aac (LC) (mp4a / 0x6134706D), 48000 Hz, stereo, fltp, 2 kb/s (default)
    Metadata:
      handler_name    : SoundHandler
Stream mapping:
  Stream #0:0 -&gt; #0:0 (h264 (native) -&gt; vp8 (libvpx))
  Stream #0:1 -&gt; #0:1 (aac (native) -&gt; opus (libopus))
Press [q] to stop, [?] for help
[libopus @ 0x5588e6b96880] No bit rate set. Defaulting to 96000 bps.
[libvpx @ 0x5588e6b941c0] v1.8.2
Output #0, webm, to &apos;浮世カットシーン「シン」-4.webm&apos;:
  Metadata:
    major_brand     : isom
    minor_version   : 512
    compatible_brands: isomiso2avc1mp41
    encoder         : Lavf58.29.100
    Stream #0:0(und): Video: vp8 (libvpx), yuv420p, 1920x1080 [SAR 1:1 DAR 16:9], q=-1--1, 5000 kb/s, 30 fps, 1k tbn, 30 tbc (default)
    Metadata:
      handler_name    : VideoHandler
      encoder         : Lavc58.54.100 libvpx
    Side data:
      cpb: bitrate max/min/avg: 0/0/0 buffer size: 0 vbv_delay: -1
    Stream #0:1(und): Audio: opus (libopus), 48000 Hz, stereo, flt, 96 kb/s (default)
    Metadata:
      handler_name    : SoundHandler
      encoder         : Lavc58.54.100 libopus
frame=  620 fps= 26 q=0.0 Lsize=   13004kB time=00:00:20.67 bitrate=5152.8kbits/s speed=0.851x    
video:12987kB audio:3kB subtitle:0kB other streams:0kB global headers:0kB muxing overhead: 0.106255%
```



